<svg xmlns="http://www.w3.org/2000/svg" viewBox="0 0 95.82 95.82"><defs><style>.cls-1{fill:#379ad6;}.cls-2{fill:#fefefe;}</style></defs><title>Asset 2</title><g id="Layer_2" data-name="Layer 2"><g id="Layer_1-2" data-name="Layer 1"><circle class="cls-1" cx="47.91" cy="47.91" r="47.91"/><g id="vYBaEi.tif"><path class="cls-2" d="M47.91,26H68.57c.36,0,.49,0,.45.47-.28,2.73-.52,5.46-.77,8.19s-.47,5.27-.72,7.9c-.29,3.22-.61,6.45-.9,9.67-.24,2.61-.47,5.21-.71,7.81-.26,2.85-.53,5.69-.78,8.54a.45.45,0,0,1-.39.46q-8.23,2.2-16.48,4.44a1.42,1.42,0,0,1-.71,0Q39.33,71.19,31.08,69a.45.45,0,0,1-.39-.46c-.2-2.29-.41-4.59-.62-6.88s-.43-4.61-.65-6.92l-.54-6q-.33-3.48-.65-7c-.19-2-.36-4-.55-6s-.37-4-.56-6c-.11-1.18-.21-2.37-.32-3.56,0-.19,0-.27.2-.25H47.91Zm.51,13.9s-.1,0-.17,0L36,45c-.22.1-.33.18-.31.46.12,1.47.22,3,.3,4.43,0,.36.1.46.48.46,5.78,0,11.55,0,17.33,0,.38,0,.5.09.47.49-.15,2-.29,4-.4,6,0,.26-.13.33-.34.39l-5.21,1.58a1.18,1.18,0,0,1-.67,0l-5.26-1.43A.46.46,0,0,1,42,57c-.07-1.13-.18-2.27-.26-3.4,0-.25-.11-.3-.34-.3q-2.32,0-4.65,0c-.21,0-.29,0-.27.28q.33,3.68.62,7.35a.49.49,0,0,0,.42.51l10.06,2.93a1,1,0,0,0,.58,0L58,61.59c.77-.21.76-.22.83-1,0-.21,0-.42.06-.64l.54-6.71c.22-2.55.43-5.1.66-7.65,0-.36-.06-.44-.42-.44H48a.51.51,0,0,1,.26-.18L53,43l7.25-3.07c.17-.07.34-.1.35-.36.1-1.52.22-3,.34-4.55,0-.32,0-.43-.39-.43l-25.65,0c-.42,0-.46.13-.41.48.23,1.46.46,2.92.65,4.39,0,.33.15.41.47.41Z"/></g></g></g></svg>