<svg xmlns="http://www.w3.org/2000/svg" viewBox="0 0 96.19 109.56"><defs><style>.cls-1{fill:#1b72b8;}.cls-2{fill:#fcfdfd;}.cls-3{fill:#1c87c6;}.cls-4{fill:#1e87c6;}</style></defs><title>Asset 14</title><g id="Layer_2" data-name="Layer 2"><g id="Layer_1-2" data-name="Layer 1"><g id="Rj2LDG"><path class="cls-1" d="M48.11,0H95.42c.85,0,.81,0,.73.84-.23,2.22-.41,4.45-.61,6.68q-.45,5-.88,9.9-.36,4-.7,8.07c-.3,3.36-.6,6.73-.89,10.09-.24,2.73-.46,5.47-.7,8.2l-.87,9.83c-.24,2.71-.47,5.42-.71,8.13s-.5,5.64-.74,8.46-.47,5.42-.71,8.13l-.75,8.52q-.36,4.1-.7,8.19c-.08,1-.19,2-.25,3,0,.41-.28.43-.56.51l-17.24,5c-6.88,2-13.77,4-20.64,6a3,3,0,0,1-1.77,0Q28.2,104,9,98.63c-.66-.18-.92-.4-1-1.15-.28-4-.66-8-1-12-.29-3.5-.55-7-.83-10.5-.33-4-.68-8-1-12-.29-3.5-.55-7-.84-10.5-.33-4-.68-8-1-12C3,37,2.75,33.48,2.47,30S1.88,23,1.59,19.55c-.24-2.93-.46-5.86-.7-8.79Q.47,5.65,0,.53C0,.12.05,0,.47,0s1.1,0,1.65,0Zm.27,74.92a.21.21,0,0,0-.29.07,2.49,2.49,0,0,1-1.48.12q-5.84-1.49-11.68-3a.67.67,0,0,1-.6-.69c-.3-2.66-.62-5.32-.93-8,0-.38-.09-.64-.6-.63q-5.4,0-10.8,0c-.48,0-.52.18-.49.59q.78,8.85,1.52,17.71a.67.67,0,0,0,.59.7c3.32.9,6.64,1.83,10,2.75l14.77,4.1V99.34c0,.77,0,.8.77.58Q54.3,98.48,59.46,97c3.3-.94,6.58-1.91,9.88-2.87q5.4-1.56,10.83-3.1a.91.91,0,0,0,.75-1c0-.78.07-1.57.14-2.35.16-1.8.36-3.6.5-5.4.09-1.18.23-2.35.3-3.53.11-1.89.33-3.78.49-5.66.1-1.16.19-2.31.29-3.46.16-1.8.34-3.6.5-5.41.11-1.21.18-2.43.29-3.65q.24-2.84.51-5.67c.1-1.1.22-2.21.29-3.32.12-1.87.33-3.74.5-5.6.1-1.18.18-2.35.29-3.53.16-1.78.34-3.55.49-5.33.11-1.24.23-2.48.31-3.72.11-1.83.32-3.65.49-5.47.1-1.18.18-2.35.29-3.53.16-1.82.36-3.64.49-5.47.09-1.19.24-2.39.31-3.59.1-1.71.31-3.42.49-5.14.06-.54-.12-.7-.68-.7q-19.08,0-38.15,0c-.6,0-.73.19-.72.75,0,3.56,0,7.12,0,10.67-.24,0-.48,0-.72,0H38.34L17.22,21l0,.12,0,.29s0,0,0,0l0,.07c.48,3.5,1,7,1.44,10.5.09.69.33.83,1,.83q13.5,0,27,0h.78a2.24,2.24,0,0,1-.78.49L20,44.84c-.4.17-.72.28-.63.87.43,2.73.78,5.48,1.2,8.21a7.46,7.46,0,0,0,.5,2.55c.24.17.51.09.76.09q12.84,0,25.68,0c.64,0,.85.13.85.82,0,5.57,0,11.15,0,16.72,0,.28,0,.57,0,.85Z"/><path class="cls-2" d="M21.08,56.47a7.46,7.46,0,0,1-.5-2.55c-.42-2.73-.77-5.48-1.2-8.21-.09-.59.23-.7.63-.87L46.64,33.28a2.24,2.24,0,0,0,.78-.49h-.78q-13.5,0-27,0c-.65,0-.89-.14-1-.83-.44-3.5-1-7-1.44-10.49,0-.05,0-.09,0-.12l0-.29,0-.12,21.12,0h9.29c.24,0,.48,0,.72,0s.52,0,.78,0q14,0,28.07,0c.69,0,.83.19.82.84,0,3.4,0,6.81,0,10.21a.82.82,0,0,1-.61.91Q64.15,38.3,50.9,43.75a1.29,1.29,0,0,0-.68.4h.87c8,0,16,0,24,0,.61,0,.74.17.68.75-.46,5.09-.89,10.19-1.34,15.28-.59,6.8-1.2,13.6-1.78,20.4a.77.77,0,0,1-.64.81L48.35,88.73l-14.77-4.1c-3.32-.92-6.64-1.85-10-2.75a.67.67,0,0,1-.59-.7q-.74-8.87-1.52-17.71c0-.41,0-.59.49-.59q5.4,0,10.8,0c.51,0,.55.25.6.63.31,2.65.63,5.31.93,8a.67.67,0,0,0,.6.69q5.85,1.45,11.68,3A2.49,2.49,0,0,0,48.09,75a.25.25,0,0,0,.29-.07h0c.21,0,.43,0,.65-.07,3.86-.73,7.72-1.47,11.58-2.18.48-.09.65-.25.7-.73q.72-7.48,1.51-14.94c.07-.67-.31-.58-.71-.58H21.67C21.47,56.44,21.28,56.46,21.08,56.47Z"/><path class="cls-3" d="M48.35,88.73,72,81.37a.77.77,0,0,0,.64-.81c.58-6.8,1.19-13.6,1.78-20.4.45-5.09.88-10.19,1.34-15.28.06-.58-.07-.75-.68-.75-8,0-16,0-24,0h-.87a1.29,1.29,0,0,1,.68-.4Q64.15,38.32,77.41,32.9A.82.82,0,0,0,78,32c0-3.4,0-6.81,0-10.21,0-.65-.13-.84-.82-.84q-14,0-28.07,0c-.26,0-.52,0-.78,0,0-3.55,0-7.11,0-10.67,0-.56.12-.75.72-.75q19.08,0,38.15,0c.56,0,.74.16.68.7-.18,1.72-.39,3.43-.49,5.14-.07,1.2-.22,2.4-.31,3.59-.13,1.83-.33,3.65-.49,5.47-.11,1.18-.19,2.35-.29,3.53-.17,1.82-.38,3.64-.49,5.47-.08,1.24-.2,2.48-.31,3.72-.15,1.78-.33,3.55-.49,5.33-.11,1.18-.19,2.35-.29,3.53-.17,1.86-.38,3.73-.5,5.6-.07,1.11-.19,2.22-.29,3.32q-.27,2.84-.51,5.67c-.11,1.22-.18,2.44-.29,3.65-.16,1.81-.34,3.61-.5,5.41-.1,1.15-.19,2.3-.29,3.46-.16,1.88-.38,3.77-.49,5.66-.07,1.18-.21,2.35-.3,3.53-.14,1.8-.34,3.6-.5,5.4-.07.78-.14,1.57-.14,2.35a.91.91,0,0,1-.75,1q-5.43,1.53-10.83,3.1c-3.3,1-6.58,1.93-9.88,2.87s-6.89,2-10.34,2.93c-.76.22-.77.19-.77-.58Z"/><path class="cls-4" d="M21.08,56.47c.2,0,.39,0,.59,0H62.13c.4,0,.78-.09.71.58Q62,64.47,61.33,72c0,.48-.22.64-.7.73-3.86.71-7.72,1.45-11.58,2.18-.22,0-.44,0-.65.07,0-.28,0-.57,0-.85,0-5.57,0-11.15,0-16.72,0-.69-.21-.82-.85-.82q-12.84,0-25.68,0C21.59,56.56,21.32,56.64,21.08,56.47Z"/><path class="cls-4" d="M48.38,74.93a.25.25,0,0,1-.29.07A.21.21,0,0,1,48.38,74.93Z"/><path class="cls-3" d="M17.22,21l0,.12Z"/><path class="cls-3" d="M17.2,21.38s0,.07,0,.12l0-.08S17.19,21.39,17.2,21.38Z"/></g></g></g></svg>