<svg xmlns="http://www.w3.org/2000/svg" viewBox="0 0 95.82 95.82"><defs><style>.cls-1{fill:#e44d26;}.cls-2{fill:#fefdfd;}</style></defs><title>Asset 3</title><g id="Layer_2" data-name="Layer 2"><g id="Layer_1-2" data-name="Layer 1"><circle class="cls-1" cx="47.91" cy="47.91" r="47.91"/><g id="QuhCnA.tif"><path class="cls-2" d="M46.37,25.36c7,0,13.93,0,20.9,0,.73,0,.9.12.81.9-.32,3-.53,5.93-.8,8.89s-.6,5.9-.86,8.85c-.37,4.18-.7,8.37-1.06,12.56s-.75,8.38-1.1,12.58a.81.81,0,0,1-.72.81q-8.31,2.28-16.62,4.6a1.91,1.91,0,0,1-1.11,0C40.3,73,34.79,71.46,29.27,70c-1.14-.31-.84-1.3-.9-1.91-.18-2-.38-4-.56-6-.2-2.29-.3-4.58-.52-6.86-.32-3.28-.59-6.57-.88-9.85-.23-2.63-.48-5.25-.71-7.88-.18-2-.35-4.06-.53-6.09-.16-1.75-.3-3.49-.51-5.23-.08-.71.19-.79.81-.79C32.44,25.37,39.4,25.36,46.37,25.36Zm0,9c-4.33,0-8.66,0-13,0-.53,0-.71.09-.66.66.21,2.14.34,4.29.55,6.42.26,2.87.63,5.72.82,8.59.06.86.35,1,1.07.94,5.7,0,11.41,0,17.12,0,.41,0,.88-.15.79.62-.21,1.92-.36,3.84-.5,5.77a.73.73,0,0,1-.64.76c-1.7.45-3.38.93-5.06,1.43a1.55,1.55,0,0,1-.93,0c-1.65-.49-3.3-1-5-1.41-.46-.12-.67-.29-.7-.8-.06-1-.24-2-.3-3.06,0-.46-.18-.58-.63-.57-1.41,0-2.81,0-4.22,0-.63,0-.7.21-.65.75.26,2.47.51,4.94.71,7.42,0,.5.37.53.69.62,3.36.9,6.72,1.79,10.07,2.7a1.63,1.63,0,0,0,.85.07c3.32-.92,6.65-1.82,10-2.73a1.08,1.08,0,0,0,.88-1c.1-1.24.16-2.48.22-3.72.09-1.79.36-3.55.39-5.35a53.11,53.11,0,0,1,.64-6c.11-.82-.16-1-1-1-6,0-11.94,0-17.91,0-.57,0-.81-.1-.85-.73-.09-1.31-.25-2.62-.45-3.92-.11-.7.13-.82.77-.81,2.75,0,5.5,0,8.25,0,3.69,0,7.38,0,11.07,0,.32,0,.77.2.8-.47.08-1.45.19-2.91.36-4.37.07-.68-.14-.81-.79-.81C54.88,34.32,50.61,34.31,46.33,34.31Z"/></g></g></g></svg>