<svg xmlns="http://www.w3.org/2000/svg" viewBox="0 0 96.87 109.56"><defs><style>.cls-1{fill:#e34e27;}.cls-2{fill:#f06529;}.cls-3{fill:#ebe7e6;}.cls-4{fill:#eae8e7;}.cls-5{fill:#f0662a;}.cls-6{fill:#fefdfd;}.cls-7{fill:#fefefd;}.cls-8{fill:#e34d26;}</style></defs><title>Asset 12</title><g id="Layer_2" data-name="Layer 2"><g id="Layer_1-2" data-name="Layer 1"><g id="msfeqj.tif"><path class="cls-1" d="M49.33,109.56H47.62c-.39-.15-.77-.34-1.17-.46-11.7-3.26-23.39-6.56-35.11-9.73-1.8-.48-2.49-1.19-2.63-3.09C7.92,86,7,75.73,6.05,65.46,4.53,48.32,3,31.17,1.43,14,1.13,10.85,1.3,7.58.21,4.48.21,3.05-.35,1.07.36.36S3.05.21,4.48.21q45,0,89.92-.06c2,0,2.76.39,2.36,2.41a10.25,10.25,0,0,0,0,1.92c-.66.24-.43.83-.47,1.28q-1.25,13.48-2.46,27Q91,64.83,88.17,96.91a2.22,2.22,0,0,1-2,2.28c-5.9,1.57-11.8,3.17-17.67,4.87C62.14,105.9,55.63,107.38,49.33,109.56Zm-.86-33.73c-4.29-.65-8.37-2.16-12.57-3.16-1-.24-1-1.09-1-1.87-.18-2.12-.4-4.24-.51-6.37-.06-1.11-.37-1.69-1.62-1.67q-4.7.09-9.39,0c-1.19,0-1.42.47-1.32,1.54.53,5.38,1,10.75,1.47,16.14.1,1.22.69,1.61,1.8,1.9,7.74,2.1,15.46,4.28,23.19,6.43,0,3.41,0,6.82,0,10.24,0,1.67.62,2.15,2.22,1.67,3.55-1,7.11-2,10.68-3C67,96.12,72.6,94.59,78.21,93c1-.27,2.16-.4,2.28-1.84.27-3.11.6-6.21.87-9.32.49-5.58.94-11.17,1.43-16.75q1-11,2-22c.49-5.37,1-10.73,1.52-16.1s1-10.88,1.46-16.32c.14-1.56-.38-2.35-2.13-2.34q-17.49.07-35,0c-1.71,0-2.24.69-2.2,2.3.07,3.2,0,6.4,0,9.6-9.46,0-18.92.09-28.37,0-1.58,0-2,.3-1.87,2q1.58,16.12,2.88,32.28c.15,1.85.61,2.52,2.61,2.5,8.25-.09,16.49,0,24.74.05Q48.48,66.44,48.47,75.83Z"/><path class="cls-2" d="M48.49,20.2c0-3.2,0-6.4,0-9.6,0-1.61.49-2.31,2.2-2.3q17.49.07,35,0c1.75,0,2.27.78,2.13,2.34-.49,5.44-1,10.88-1.46,16.32s-1,10.73-1.52,16.1q-1,11-2,22c-.49,5.58-.94,11.17-1.43,16.75-.27,3.11-.6,6.21-.87,9.32-.12,1.44-1.29,1.57-2.28,1.84C72.6,94.59,67,96.12,61.37,97.68c-3.57,1-7.13,2-10.68,3-1.6.48-2.25,0-2.22-1.67.05-3.42,0-6.83,0-10.24l0-.18q11.91-3.23,23.82-6.43c1-.28,1-1,1-1.81,1-11.4,2-22.79,3.1-34.18.11-1.14-.18-1.5-1.33-1.49-8.88.07-17.77.09-26.65.12l0-.21,0-12a1.61,1.61,0,0,0,0-.31c9.32,0,18.63.08,27.94.16,1.25,0,1.35-.78,1.43-1.66.28-3.11.49-6.23.84-9.34.15-1.3-.59-1.19-1.39-1.19l-28.81.07Z"/><path class="cls-3" d="M48.48,57.06C40.23,57,32,56.92,23.74,57c-2,0-2.46-.65-2.61-2.5q-1.3-16.15-2.88-32.28c-.16-1.69.29-2,1.87-2,9.45.05,18.91,0,28.37,0l0,.15q0,6,0,12a1.61,1.61,0,0,1,0,.31L32.7,32.48c-.68,0-1.25.08-1.15,1.06.33,3.31.62,6.63.9,10,.07.88.46,1.21,1.35,1.2,4.89-.05,9.79-.07,14.68-.11l0,.21V56.85Z"/><path class="cls-4" d="M48.49,88.77C40.76,86.62,33,84.44,25.3,82.34c-1.11-.29-1.7-.68-1.8-1.9-.44-5.39-.94-10.76-1.47-16.14-.1-1.07.13-1.56,1.32-1.54q4.7.09,9.39,0c1.25,0,1.56.56,1.62,1.67.11,2.13.33,4.25.51,6.37.06.78,0,1.63,1,1.87,4.2,1,8.28,2.51,12.57,3.16a.39.39,0,0,1,0,.28q0,6.24,0,12.48Z"/><path class="cls-5" d="M48.47,75.83q0-9.39,0-18.77l0-.21c4.18,0,8.37.18,12.55,0,1.89-.06,2.24.56,2,2.28-.43,3.81-.72,7.63-1,11.45a2.16,2.16,0,0,1-1.93,2.29c-3.92,1-7.79,2.12-11.68,3.19A.39.39,0,0,0,48.47,75.83Z"/><path class="cls-6" d="M48.45,76.11c3.89-1.07,7.76-2.23,11.68-3.19a2.16,2.16,0,0,0,1.93-2.29c.27-3.82.56-7.64,1-11.45.2-1.72-.15-2.34-2-2.28-4.18.13-8.37,0-12.55,0V44.8c8.88,0,17.77,0,26.65-.12,1.15,0,1.44.35,1.33,1.49C75.37,57.56,74.36,69,73.34,80.35c-.07.78,0,1.53-1,1.81q-11.91,3.18-23.82,6.43Q48.46,82.35,48.45,76.11Z"/><path class="cls-7" d="M48.45,32.31q0-6,0-12l28.81-.07c.8,0,1.54-.11,1.39,1.19-.35,3.11-.56,6.23-.84,9.34-.08.88-.18,1.67-1.43,1.66C67.08,32.39,57.77,32.36,48.45,32.31Z"/><path class="cls-8" d="M48.48,44.59c-4.89,0-9.79.06-14.68.11-.89,0-1.28-.32-1.35-1.2-.28-3.33-.57-6.65-.9-10-.1-1,.47-1.06,1.15-1.06l15.75.14Z"/></g></g></g></svg>