<svg xmlns="http://www.w3.org/2000/svg" viewBox="0 0 147.69 138.8"><defs><style>.cls-1{fill:#0b69ac;}.cls-2{fill:#0c69ac;}.cls-3{fill:#0e6aad;}</style></defs><title>Asset 22</title><g id="Layer_2" data-name="Layer 2"><g id="Layer_1-2" data-name="Layer 1"><g id="WZYUNe"><path class="cls-1" d="M17.27,20.45C8.07,48.7,15.9,73,35.4,93.91c23.5,25.24,60.54,33.64,89.51,21.13,6.62-2.86,12.29-7.07,17.63-11.78,1.55,1.54.12,2.41-.37,3.18-15.31,23.9-37.72,33.41-65.41,32.27-35.39-1.46-69.43-31-75.67-67.06C-2.34,51.84,2.23,34.41,16.46,19.84Z"/><path class="cls-2" d="M54.85,7C48.47,37.76,60.54,59,85.9,72.37c21.44,11.32,42.67,9.88,61.39-7.33,1.09,1.53-.34,2.49-.94,3.46-10.77,17.62-27.18,24.1-47,23.47C69,91,42.72,64,43.57,34.53,43.85,24.58,47.26,15.78,54.85,7Z"/><path class="cls-3" d="M141.18,39.61c-5,7.59-12.27,11.06-21,11.37-16.24.59-28.23-6.67-35.84-20.8C78.86,20.08,79.14,9.9,86.18,0,85,15.05,90.28,27.23,102.46,35.66,114.37,43.9,127.39,45.79,141.18,39.61Z"/><path class="cls-1" d="M16.46,19.84c.13-.46.38-.9.86-.56.17.13,0,.77-.05,1.17Z"/></g></g></g></svg>