<svg xmlns="http://www.w3.org/2000/svg" viewBox="0 0 109.06 109.56"><defs><style>.cls-1{fill:#fff;}</style></defs><title>Asset 23</title><g id="Layer_2" data-name="Layer 2"><g id="Layer_1-2" data-name="Layer 1"><g id="dqkJ9h.tif"><path class="cls-1" d="M97.26,0l4,14.56c2.56,9.28,5.13,18.56,7.63,27.86a2.89,2.89,0,0,1-.26,2c-1.86,3.21-3.79,6.38-5.74,9.53a1.34,1.34,0,0,0,0,1.63q3,4.77,5.81,9.63a2.46,2.46,0,0,1,.28,1.67Q103.25,88,97.4,109.06a3.94,3.94,0,0,1-.23.5c-4.11-1.07-8.2-2.12-12.28-3.19q-15.67-4.08-31.35-8.15a2.5,2.5,0,0,1-1.7-1.33c-1.8-3.15-3.68-6.26-5.47-9.41a1.55,1.55,0,0,0-1.61-.92c-3.8,0-7.59.07-11.39,0a2.68,2.68,0,0,1-1.67-.66c-6.26-6-12.47-12.06-18.7-18.1L.5,55.68C.21,55.4,0,55.1,0,55c2.57-2.72,5.06-5.53,7.73-8.16C13.27,41.37,18.9,36,24.48,30.55c2.43-2.36,4.84-4.75,7.3-7.08a2.34,2.34,0,0,1,1.47-.59c3.59,0,7.18,0,10.77.17a2.47,2.47,0,0,0,2.66-1.47c1.66-3.08,3.47-6.09,5.28-9.09a2.65,2.65,0,0,1,1.43-1.08Q74.78,5.77,96.19.22C96.49.14,96.81.09,97.26,0Zm-6.5,21.76c-.39.62-.64,1-.86,1.36q-9,15.18-18,30.35a2.17,2.17,0,0,0,0,2.59Q80.1,69.85,88.29,83.7c.77,1.3,1.56,2.6,2.44,4,.11-.34.16-.48.2-.62q4.56-15.84,9.09-31.7a3.24,3.24,0,0,0-.09-1.63c-1.55-5.51-3.14-11-4.71-16.5C93.75,32.2,92.29,27.1,90.76,21.76ZM22.49,60.17c4.65,4.71,9.15,9.29,13.68,13.83q5.09,5.1,10.26,10.12a3.25,3.25,0,0,0,1.44.77q15.95,4,31.9,8c.36.09.72.15,1.3.28L80.39,92Q71.27,76.66,62.18,61.3a2,2,0,0,0-2-1.15q-18.23,0-36.46,0ZM81.05,16.39c-.55.1-.9.14-1.24.23q-16,4-32,8a3.79,3.79,0,0,0-1.61,1Q35.44,36.25,24.71,46.94c-.72.71-1.51,1.37-2.27,2.05a1.45,1.45,0,0,0,.89.34q18.66,0,37.3,0a1.53,1.53,0,0,0,1.46-1Q69.6,35.66,77.15,23C78.42,20.84,79.69,18.7,81.05,16.39Z"/></g></g></g></svg>