<svg xmlns="http://www.w3.org/2000/svg" viewBox="0 0 95.82 95.82"><defs><style>.cls-1{fill:#fff;}</style></defs><title>Asset 11</title><g id="Layer_2" data-name="Layer 2"><g id="Layer_1-2" data-name="Layer 1"><path d="M47.91,94.32A46.41,46.41,0,1,1,94.32,47.91,46.46,46.46,0,0,1,47.91,94.32Z"/><path class="cls-1" d="M47.91,3A44.91,44.91,0,1,1,3,47.91,45,45,0,0,1,47.91,3m0-3A47.91,47.91,0,1,0,95.82,47.91,47.91,47.91,0,0,0,47.91,0Z"/><g id="dqkJ9h.tif"><path class="cls-1" d="M64.63,21.35c.67,2.39,1.31,4.73,2,7.06q1.88,6.75,3.71,13.51a1.39,1.39,0,0,1-.13,1c-.9,1.56-1.84,3.1-2.78,4.63a.65.65,0,0,0,0,.79q1.44,2.31,2.82,4.67a1.21,1.21,0,0,1,.14.81Q67.52,64,64.7,74.23a1.56,1.56,0,0,1-.11.24l-6-1.54c-5.06-1.32-10.13-2.65-15.2-4a1.27,1.27,0,0,1-.83-.65c-.87-1.53-1.78-3-2.64-4.57a.78.78,0,0,0-.79-.44c-1.84,0-3.68,0-5.52,0a1.29,1.29,0,0,1-.81-.32c-3-2.91-6.05-5.85-9.07-8.78l-6.06-5.88c-.14-.14-.26-.28-.24-.33,1.25-1.32,2.46-2.68,3.75-4,2.68-2.65,5.41-5.27,8.12-7.9,1.18-1.14,2.34-2.3,3.54-3.43a1.1,1.1,0,0,1,.71-.29c1.74,0,3.48,0,5.22.08a1.18,1.18,0,0,0,1.29-.71c.81-1.49,1.68-2.95,2.57-4.41a1.28,1.28,0,0,1,.69-.52q10.37-2.73,20.75-5.43ZM61.48,31.9l-.42.66c-2.91,4.9-5.82,9.82-8.75,14.71a1.07,1.07,0,0,0,0,1.26c2.67,4.46,5.31,8.93,8,13.4.37.63.76,1.26,1.18,2l.1-.3q2.2-7.69,4.41-15.37a1.46,1.46,0,0,0,0-.8c-.75-2.67-1.52-5.33-2.28-8ZM28.37,50.52C30.63,52.81,32.81,55,35,57.23c1.64,1.65,3.3,3.28,5,4.91a1.58,1.58,0,0,0,.7.37l15.47,3.88.63.14L56.45,66Q52,58.52,47.62,51.07a1,1,0,0,0-.95-.56c-5.9,0-11.79,0-17.68,0Zm28.4-21.23a5.69,5.69,0,0,0-.6.12Q48.4,31.35,40.65,33.3a1.73,1.73,0,0,0-.78.46q-5.22,5.16-10.42,10.35c-.35.34-.73.66-1.1,1a.68.68,0,0,0,.43.17c6,0,12.06,0,18.09,0a.76.76,0,0,0,.71-.48q3.64-6.16,7.3-12.31Z"/></g></g></g></svg>